<svg width="192" height="52" viewBox="0 0 1540 402" fill="none" xmlns="http://www.w3.org/2000/svg">
<path d="M364.6 131.2H431.8C445.4 131.2 456 134.533 463.6 141.2C471.333 147.867 475.2 157 475.2 168.6C475.2 177.267 473.2 184.867 469.2 191.4C465.333 197.933 459.067 202.4 450.4 204.8V205.2C454.533 206 457.867 207.333 460.4 209.2C463.067 211.067 465.133 213.333 466.6 216C468.2 218.533 469.333 221.4 470 224.6C470.8 227.8 471.4 231.133 471.8 234.6C472.067 238.067 472.267 241.6 472.4 245.2C472.533 248.8 472.867 252.333 473.4 255.8C473.933 259.267 474.667 262.6 475.6 265.8C476.667 268.867 478.2 271.6 480.2 274H459C457.667 272.533 456.733 270.533 456.2 268C455.8 265.467 455.533 262.667 455.4 259.6C455.267 256.4 455.133 253 455 249.4C454.867 245.8 454.467 242.267 453.8 238.8C453.267 235.333 452.6 232.067 451.8 229C451 225.8 449.733 223.067 448 220.8C446.267 218.4 444 216.533 441.2 215.2C438.4 213.733 434.667 213 430 213H383.6V274H364.6V131.2ZM423.2 197C427.6 197 431.8 196.667 435.8 196C439.8 195.333 443.267 194.067 446.2 192.2C449.267 190.2 451.667 187.6 453.4 184.4C455.267 181.067 456.2 176.8 456.2 171.6C456.2 164.4 454.2 158.533 450.2 154C446.2 149.467 439.733 147.2 430.8 147.2H383.6V197H423.2ZM511.114 222.4C511.114 228.667 511.914 234.267 513.514 239.2C515.247 244 517.581 248.067 520.514 251.4C523.447 254.6 526.847 257.067 530.714 258.8C534.714 260.533 538.914 261.4 543.314 261.4C547.714 261.4 551.847 260.533 555.714 258.8C559.714 257.067 563.181 254.6 566.114 251.4C569.047 248.067 571.314 244 572.914 239.2C574.647 234.267 575.514 228.667 575.514 222.4C575.514 216.133 574.647 210.6 572.914 205.8C571.314 200.867 569.047 196.733 566.114 193.4C563.181 190.067 559.714 187.533 555.714 185.8C551.847 184.067 547.714 183.2 543.314 183.2C538.914 183.2 534.714 184.067 530.714 185.8C526.847 187.533 523.447 190.067 520.514 193.4C517.581 196.733 515.247 200.867 513.514 205.8C511.914 210.6 511.114 216.133 511.114 222.4ZM493.114 222.4C493.114 214.8 494.181 207.733 496.314 201.2C498.447 194.533 501.647 188.8 505.914 184C510.181 179.067 515.447 175.2 521.714 172.4C527.981 169.6 535.181 168.2 543.314 168.2C551.581 168.2 558.781 169.6 564.914 172.4C571.181 175.2 576.447 179.067 580.714 184C584.981 188.8 588.181 194.533 590.314 201.2C592.447 207.733 593.514 214.8 593.514 222.4C593.514 230 592.447 237.067 590.314 243.6C588.181 250.133 584.981 255.867 580.714 260.8C576.447 265.6 571.181 269.4 564.914 272.2C558.781 274.867 551.581 276.2 543.314 276.2C535.181 276.2 527.981 274.867 521.714 272.2C515.447 269.4 510.181 265.6 505.914 260.8C501.647 255.867 498.447 250.133 496.314 243.6C494.181 237.067 493.114 230 493.114 222.4ZM705.158 273.6C702.224 275.333 698.158 276.2 692.958 276.2C688.558 276.2 685.024 275 682.358 272.6C679.824 270.067 678.558 266 678.558 260.4C673.891 266 668.424 270.067 662.158 272.6C656.024 275 649.358 276.2 642.158 276.2C637.491 276.2 633.024 275.667 628.758 274.6C624.624 273.533 621.024 271.867 617.958 269.6C614.891 267.333 612.424 264.4 610.558 260.8C608.824 257.067 607.958 252.6 607.958 247.4C607.958 241.533 608.958 236.733 610.958 233C612.958 229.267 615.558 226.267 618.758 224C622.091 221.6 625.824 219.8 629.958 218.6C634.224 217.4 638.558 216.4 642.958 215.6C647.624 214.667 652.024 214 656.158 213.6C660.424 213.067 664.158 212.4 667.358 211.6C670.558 210.667 673.091 209.4 674.958 207.8C676.824 206.067 677.758 203.6 677.758 200.4C677.758 196.667 677.024 193.667 675.558 191.4C674.224 189.133 672.424 187.4 670.158 186.2C668.024 185 665.558 184.2 662.758 183.8C660.091 183.4 657.424 183.2 654.758 183.2C647.558 183.2 641.558 184.6 636.758 187.4C631.958 190.067 629.358 195.2 628.958 202.8H611.958C612.224 196.4 613.558 191 615.958 186.6C618.358 182.2 621.558 178.667 625.558 176C629.558 173.2 634.091 171.2 639.158 170C644.358 168.8 649.891 168.2 655.758 168.2C660.424 168.2 665.024 168.533 669.558 169.2C674.224 169.867 678.424 171.267 682.158 173.4C685.891 175.4 688.891 178.267 691.158 182C693.424 185.733 694.558 190.6 694.558 196.6V249.8C694.558 253.8 694.758 256.733 695.158 258.6C695.691 260.467 697.291 261.4 699.958 261.4C701.424 261.4 703.158 261.067 705.158 260.4V273.6ZM677.558 220.6C675.424 222.2 672.624 223.4 669.158 224.2C665.691 224.867 662.024 225.467 658.158 226C654.424 226.4 650.624 226.933 646.758 227.6C642.891 228.133 639.424 229.067 636.358 230.4C633.291 231.733 630.758 233.667 628.758 236.2C626.891 238.6 625.958 241.933 625.958 246.2C625.958 249 626.491 251.4 627.558 253.4C628.758 255.267 630.224 256.8 631.958 258C633.824 259.2 635.958 260.067 638.358 260.6C640.758 261.133 643.291 261.4 645.958 261.4C651.558 261.4 656.358 260.667 660.358 259.2C664.358 257.6 667.624 255.667 670.158 253.4C672.691 251 674.558 248.467 675.758 245.8C676.958 243 677.558 240.4 677.558 238V220.6ZM733.38 223.2C733.38 228 733.98 232.733 735.18 237.4C736.513 241.933 738.446 246 740.98 249.6C743.646 253.2 746.98 256.067 750.98 258.2C755.113 260.333 759.913 261.4 765.38 261.4C771.113 261.4 775.98 260.267 779.98 258C783.98 255.733 787.246 252.8 789.78 249.2C792.313 245.467 794.113 241.267 795.18 236.6C796.38 231.933 796.98 227.2 796.98 222.4C796.98 217.333 796.38 212.467 795.18 207.8C793.98 203 792.046 198.8 789.38 195.2C786.846 191.6 783.513 188.733 779.38 186.6C775.246 184.333 770.246 183.2 764.38 183.2C758.646 183.2 753.78 184.333 749.78 186.6C745.78 188.867 742.58 191.867 740.18 195.6C737.78 199.333 736.046 203.6 734.98 208.4C733.913 213.2 733.38 218.133 733.38 223.2ZM813.38 274H796.38V260H795.98C793.18 265.733 788.78 269.867 782.78 272.4C776.78 274.933 770.18 276.2 762.98 276.2C754.98 276.2 747.98 274.733 741.98 271.8C736.113 268.867 731.18 264.933 727.18 260C723.313 255.067 720.38 249.333 718.38 242.8C716.38 236.267 715.38 229.333 715.38 222C715.38 214.667 716.313 207.733 718.18 201.2C720.18 194.667 723.113 189 726.98 184.2C730.98 179.267 735.913 175.4 741.78 172.6C747.78 169.667 754.713 168.2 762.58 168.2C765.246 168.2 768.113 168.467 771.18 169C774.246 169.533 777.313 170.467 780.38 171.8C783.446 173 786.313 174.667 788.98 176.8C791.78 178.8 794.113 181.333 795.98 184.4H796.38V131.2H813.38V274ZM971.334 274H951.534L918.934 154H918.534L885.534 274H865.734L829.134 131.2H848.534L876.534 250H876.934L908.934 131.2H929.534L961.134 250H961.534L990.534 131.2H1009.53L971.334 274ZM1108.87 273.6C1105.94 275.333 1101.87 276.2 1096.67 276.2C1092.27 276.2 1088.74 275 1086.07 272.6C1083.54 270.067 1082.27 266 1082.27 260.4C1077.6 266 1072.14 270.067 1065.87 272.6C1059.74 275 1053.07 276.2 1045.87 276.2C1041.2 276.2 1036.74 275.667 1032.47 274.6C1028.34 273.533 1024.74 271.867 1021.67 269.6C1018.6 267.333 1016.14 264.4 1014.27 260.8C1012.54 257.067 1011.67 252.6 1011.67 247.4C1011.67 241.533 1012.67 236.733 1014.67 233C1016.67 229.267 1019.27 226.267 1022.47 224C1025.8 221.6 1029.54 219.8 1033.67 218.6C1037.94 217.4 1042.27 216.4 1046.67 215.6C1051.34 214.667 1055.74 214 1059.87 213.6C1064.14 213.067 1067.87 212.4 1071.07 211.6C1074.27 210.667 1076.8 209.4 1078.67 207.8C1080.54 206.067 1081.47 203.6 1081.47 200.4C1081.47 196.667 1080.74 193.667 1079.27 191.4C1077.94 189.133 1076.14 187.4 1073.87 186.2C1071.74 185 1069.27 184.2 1066.47 183.8C1063.8 183.4 1061.14 183.2 1058.47 183.2C1051.27 183.2 1045.27 184.6 1040.47 187.4C1035.67 190.067 1033.07 195.2 1032.67 202.8H1015.67C1015.94 196.4 1017.27 191 1019.67 186.6C1022.07 182.2 1025.27 178.667 1029.27 176C1033.27 173.2 1037.8 171.2 1042.87 170C1048.07 168.8 1053.6 168.2 1059.47 168.2C1064.14 168.2 1068.74 168.533 1073.27 169.2C1077.94 169.867 1082.14 171.267 1085.87 173.4C1089.6 175.4 1092.6 178.267 1094.87 182C1097.14 185.733 1098.27 190.6 1098.27 196.6V249.8C1098.27 253.8 1098.47 256.733 1098.87 258.6C1099.4 260.467 1101 261.4 1103.67 261.4C1105.14 261.4 1106.87 261.067 1108.87 260.4V273.6ZM1081.27 220.6C1079.14 222.2 1076.34 223.4 1072.87 224.2C1069.4 224.867 1065.74 225.467 1061.87 226C1058.14 226.4 1054.34 226.933 1050.47 227.6C1046.6 228.133 1043.14 229.067 1040.07 230.4C1037 231.733 1034.47 233.667 1032.47 236.2C1030.6 238.6 1029.67 241.933 1029.67 246.2C1029.67 249 1030.2 251.4 1031.27 253.4C1032.47 255.267 1033.94 256.8 1035.67 258C1037.54 259.2 1039.67 260.067 1042.07 260.6C1044.47 261.133 1047 261.4 1049.67 261.4C1055.27 261.4 1060.07 260.667 1064.07 259.2C1068.07 257.6 1071.34 255.667 1073.87 253.4C1076.4 251 1078.27 248.467 1079.47 245.8C1080.67 243 1081.27 240.4 1081.27 238V220.6ZM1148.29 170.6H1168.89V185.6H1148.29V249.8C1148.29 251.8 1148.42 253.4 1148.69 254.6C1149.09 255.8 1149.76 256.733 1150.69 257.4C1151.62 258.067 1152.89 258.533 1154.49 258.8C1156.22 258.933 1158.42 259 1161.09 259H1168.89V274H1155.89C1151.49 274 1147.69 273.733 1144.49 273.2C1141.42 272.533 1138.89 271.4 1136.89 269.8C1135.02 268.2 1133.62 265.933 1132.69 263C1131.76 260.067 1131.29 256.2 1131.29 251.4V185.6H1113.69V170.6H1131.29V139.6H1148.29V170.6ZM1257.98 203.8C1256.64 197.267 1253.84 192.2 1249.58 188.6C1245.31 185 1239.58 183.2 1232.38 183.2C1226.24 183.2 1221.11 184.333 1216.98 186.6C1212.84 188.867 1209.51 191.867 1206.98 195.6C1204.58 199.333 1202.84 203.667 1201.78 208.6C1200.71 213.4 1200.18 218.4 1200.18 223.6C1200.18 228.4 1200.71 233.067 1201.78 237.6C1202.98 242.133 1204.78 246.2 1207.18 249.8C1209.58 253.267 1212.71 256.067 1216.58 258.2C1220.44 260.333 1225.04 261.4 1230.38 261.4C1238.78 261.4 1245.31 259.2 1249.98 254.8C1254.78 250.4 1257.71 244.2 1258.78 236.2H1276.18C1274.31 249 1269.51 258.867 1261.78 265.8C1254.18 272.733 1243.78 276.2 1230.58 276.2C1222.71 276.2 1215.71 274.933 1209.58 272.4C1203.58 269.867 1198.51 266.267 1194.38 261.6C1190.38 256.933 1187.31 251.4 1185.18 245C1183.18 238.467 1182.18 231.333 1182.18 223.6C1182.18 215.867 1183.18 208.667 1185.18 202C1187.18 195.2 1190.18 189.333 1194.18 184.4C1198.31 179.333 1203.44 175.4 1209.58 172.6C1215.71 169.667 1222.84 168.2 1230.98 168.2C1236.84 168.2 1242.31 168.933 1247.38 170.4C1252.58 171.733 1257.11 173.867 1260.98 176.8C1264.98 179.733 1268.24 183.467 1270.78 188C1273.31 192.4 1274.91 197.667 1275.58 203.8H1257.98ZM1295.2 131.2H1312.2V185.8H1312.6C1313.93 182.6 1315.8 179.933 1318.2 177.8C1320.6 175.533 1323.27 173.733 1326.2 172.4C1329.27 170.933 1332.4 169.867 1335.6 169.2C1338.93 168.533 1342.13 168.2 1345.2 168.2C1352 168.2 1357.67 169.133 1362.2 171C1366.73 172.867 1370.4 175.467 1373.2 178.8C1376 182.133 1377.93 186.133 1379 190.8C1380.2 195.333 1380.8 200.4 1380.8 206V274H1363.8V204C1363.8 197.6 1361.93 192.533 1358.2 188.8C1354.47 185.067 1349.33 183.2 1342.8 183.2C1337.6 183.2 1333.07 184 1329.2 185.6C1325.47 187.2 1322.33 189.467 1319.8 192.4C1317.27 195.333 1315.33 198.8 1314 202.8C1312.8 206.667 1312.2 210.933 1312.2 215.6V274H1295.2V131.2Z" fill="currentColor" />
<g clip-path="url(#clip0_13_2)">
<path d="M210.705 113.674L128.679 195.7C126.028 198.351 126.028 202.649 128.679 205.3L210.705 287.326C213.356 289.977 217.654 289.977 220.305 287.327L302.332 205.3C304.982 202.649 304.982 198.351 302.332 195.7L220.305 113.673C217.654 111.023 213.356 111.023 210.705 113.674Z" fill="#FFE033" stroke="black" stroke-width="12" stroke-linecap="round" stroke-linejoin="round"/>
<path d="M183.781 219.531V213.188C183.781 208.14 185.786 203.299 189.355 199.73C192.924 196.161 197.765 194.156 202.812 194.156H247.219" stroke="black" stroke-width="12" stroke-linecap="round" stroke-linejoin="round"/>
<path d="M228.188 175.125L247.219 194.156L228.188 213.188" stroke="black" stroke-width="12" stroke-linecap="round" stroke-linejoin="round"/>
</g>
<defs>
<clipPath id="clip0_13_2">
<rect width="203" height="203" fill="white" transform="translate(114 99)"/>
</clipPath>
</defs>
</svg>
